<mxfile host="app.diagrams.net" modified="2021-05-19T16:18:03.464Z" agent="5.0 (Macintosh; Intel Mac OS X 11_1_0) AppleWebKit/537.36 (KHTML, like Gecko) Chrome/89.0.4389.114 Safari/537.36" etag="wJf5wN6bT8x1Q48DYaw_" version="14.6.13" type="github">
  <diagram name="Page-1" id="9f46799a-70d6-7492-0946-bef42562c5a5">
    <mxGraphModel dx="1625" dy="1297" grid="1" gridSize="10" guides="1" tooltips="1" connect="1" arrows="1" fold="1" page="1" pageScale="1" pageWidth="1100" pageHeight="850" background="#ffffff" math="0" shadow="0">
      <root>
        <mxCell id="0" />
        <mxCell id="1" parent="0" />
        <mxCell id="78961159f06e98e8-17" value="&lt;div&gt;&lt;i&gt;Models.ShapeGeom&lt;/i&gt;&lt;/div&gt;&lt;div&gt;&lt;i&gt;&lt;span style=&quot;font-weight: normal&quot;&gt;(abstract)&lt;/span&gt;&lt;br&gt;&lt;/i&gt;&lt;/div&gt;" style="swimlane;html=1;fontStyle=1;align=center;verticalAlign=top;childLayout=stackLayout;horizontal=1;startSize=40;horizontalStack=0;resizeParent=1;resizeLast=0;collapsible=1;marginBottom=0;swimlaneFillColor=#ffffff;rounded=0;shadow=0;comic=0;labelBackgroundColor=none;strokeWidth=1;fillColor=none;fontFamily=Verdana;fontSize=12" parent="1" vertex="1">
          <mxGeometry x="400" y="30" width="310" height="436" as="geometry" />
        </mxCell>
        <mxCell id="78961159f06e98e8-21" value="&lt;div&gt;+ private color : color&lt;/div&gt;&lt;div&gt;&lt;br&gt;&lt;/div&gt;" style="text;html=1;strokeColor=none;fillColor=none;align=left;verticalAlign=top;spacingLeft=4;spacingRight=4;whiteSpace=wrap;overflow=hidden;rotatable=0;points=[[0,0.5],[1,0.5]];portConstraint=eastwest;" parent="78961159f06e98e8-17" vertex="1">
          <mxGeometry y="40" width="310" height="22" as="geometry" />
        </mxCell>
        <mxCell id="4_bB-vSsy7LAxxvjSIpe-3" value="&lt;div&gt;+ private color : borderColor&amp;nbsp; (optional)&lt;/div&gt;" style="text;html=1;strokeColor=none;fillColor=none;align=left;verticalAlign=top;spacingLeft=4;spacingRight=4;whiteSpace=wrap;overflow=hidden;rotatable=0;points=[[0,0.5],[1,0.5]];portConstraint=eastwest;" parent="78961159f06e98e8-17" vertex="1">
          <mxGeometry y="62" width="310" height="22" as="geometry" />
        </mxCell>
        <mxCell id="4_bB-vSsy7LAxxvjSIpe-4" value="&lt;div&gt;+ private int : thickness&lt;/div&gt;" style="text;html=1;strokeColor=none;fillColor=none;align=left;verticalAlign=top;spacingLeft=4;spacingRight=4;whiteSpace=wrap;overflow=hidden;rotatable=0;points=[[0,0.5],[1,0.5]];portConstraint=eastwest;" parent="78961159f06e98e8-17" vertex="1">
          <mxGeometry y="84" width="310" height="22" as="geometry" />
        </mxCell>
        <mxCell id="78961159f06e98e8-23" value="+ private point : center" style="text;html=1;strokeColor=none;fillColor=none;align=left;verticalAlign=top;spacingLeft=4;spacingRight=4;whiteSpace=wrap;overflow=hidden;rotatable=0;points=[[0,0.5],[1,0.5]];portConstraint=eastwest;" parent="78961159f06e98e8-17" vertex="1">
          <mxGeometry y="106" width="310" height="26" as="geometry" />
        </mxCell>
        <mxCell id="78961159f06e98e8-24" value="&lt;div&gt;+ private pointMemo[]: int&lt;br&gt;&lt;/div&gt;&lt;div&gt;&lt;br&gt;&lt;/div&gt;" style="text;html=1;strokeColor=none;fillColor=none;align=left;verticalAlign=top;spacingLeft=4;spacingRight=4;whiteSpace=wrap;overflow=hidden;rotatable=0;points=[[0,0.5],[1,0.5]];portConstraint=eastwest;" parent="78961159f06e98e8-17" vertex="1">
          <mxGeometry y="132" width="310" height="42" as="geometry" />
        </mxCell>
        <mxCell id="4_bB-vSsy7LAxxvjSIpe-2" value="&lt;div&gt;+ private memoShown[]: int&lt;br&gt;&lt;/div&gt;&lt;div&gt;&lt;br&gt;&lt;/div&gt;" style="text;html=1;strokeColor=none;fillColor=none;align=left;verticalAlign=top;spacingLeft=4;spacingRight=4;whiteSpace=wrap;overflow=hidden;rotatable=0;points=[[0,0.5],[1,0.5]];portConstraint=eastwest;" parent="78961159f06e98e8-17" vertex="1">
          <mxGeometry y="174" width="310" height="42" as="geometry" />
        </mxCell>
        <mxCell id="78961159f06e98e8-19" value="" style="line;html=1;strokeWidth=1;fillColor=none;align=left;verticalAlign=middle;spacingTop=-1;spacingLeft=3;spacingRight=3;rotatable=0;labelPosition=right;points=[];portConstraint=eastwest;" parent="78961159f06e98e8-17" vertex="1">
          <mxGeometry y="216" width="310" height="8" as="geometry" />
        </mxCell>
        <mxCell id="_SBceAVWX3WUUOqYOyA2-44" value="+ translate(int x, int y) : void" style="text;html=1;strokeColor=none;fillColor=none;align=left;verticalAlign=top;spacingLeft=4;spacingRight=4;whiteSpace=wrap;overflow=hidden;rotatable=0;points=[[0,0.5],[1,0.5]];portConstraint=eastwest;" parent="78961159f06e98e8-17" vertex="1">
          <mxGeometry y="224" width="310" height="40" as="geometry" />
        </mxCell>
        <mxCell id="78961159f06e98e8-20" value="+ figureSelect() : void" style="text;html=1;strokeColor=none;fillColor=none;align=left;verticalAlign=top;spacingLeft=4;spacingRight=4;whiteSpace=wrap;overflow=hidden;rotatable=0;points=[[0,0.5],[1,0.5]];portConstraint=eastwest;" parent="78961159f06e98e8-17" vertex="1">
          <mxGeometry y="264" width="310" height="26" as="geometry" />
        </mxCell>
        <mxCell id="78961159f06e98e8-27" value="&lt;div&gt;+ colorChange() : void&lt;/div&gt;&lt;div&gt;&lt;br&gt;&lt;/div&gt;&lt;div&gt;&amp;nbsp; &lt;br&gt;&lt;/div&gt;&lt;div&gt;&lt;br&gt;&lt;/div&gt;&lt;div&gt;&lt;br&gt;&lt;/div&gt;" style="text;html=1;strokeColor=none;fillColor=none;align=left;verticalAlign=top;spacingLeft=4;spacingRight=4;whiteSpace=wrap;overflow=hidden;rotatable=0;points=[[0,0.5],[1,0.5]];portConstraint=eastwest;" parent="78961159f06e98e8-17" vertex="1">
          <mxGeometry y="290" width="310" height="26" as="geometry" />
        </mxCell>
        <mxCell id="_SBceAVWX3WUUOqYOyA2-45" value="+ modifyFigure() : void" style="text;html=1;strokeColor=none;fillColor=none;align=left;verticalAlign=top;spacingLeft=4;spacingRight=4;whiteSpace=wrap;overflow=hidden;rotatable=0;points=[[0,0.5],[1,0.5]];portConstraint=eastwest;" parent="78961159f06e98e8-17" vertex="1">
          <mxGeometry y="316" width="310" height="40" as="geometry" />
        </mxCell>
        <mxCell id="_SBceAVWX3WUUOqYOyA2-46" value="+ getPoint() : int" style="text;html=1;strokeColor=none;fillColor=none;align=left;verticalAlign=top;spacingLeft=4;spacingRight=4;whiteSpace=wrap;overflow=hidden;rotatable=0;points=[[0,0.5],[1,0.5]];portConstraint=eastwest;" parent="78961159f06e98e8-17" vertex="1">
          <mxGeometry y="356" width="310" height="40" as="geometry" />
        </mxCell>
        <mxCell id="_2XkQiwsp4mKMtn9n1sC-2" value="+ draw(g):void" style="text;html=1;strokeColor=none;fillColor=none;align=left;verticalAlign=top;spacingLeft=4;spacingRight=4;whiteSpace=wrap;overflow=hidden;rotatable=0;points=[[0,0.5],[1,0.5]];portConstraint=eastwest;" parent="78961159f06e98e8-17" vertex="1">
          <mxGeometry y="396" width="310" height="40" as="geometry" />
        </mxCell>
        <mxCell id="_SBceAVWX3WUUOqYOyA2-2" value="Polygon" style="swimlane;html=1;fontStyle=1;align=center;verticalAlign=top;childLayout=stackLayout;horizontal=1;startSize=26;horizontalStack=0;resizeParent=1;resizeLast=0;collapsible=1;marginBottom=0;swimlaneFillColor=#ffffff;rounded=0;shadow=0;comic=0;labelBackgroundColor=none;strokeWidth=1;fillColor=none;fontFamily=Verdana;fontSize=12" parent="1" vertex="1">
          <mxGeometry x="350" y="530" width="160" height="150" as="geometry" />
        </mxCell>
        <mxCell id="_SBceAVWX3WUUOqYOyA2-8" value="" style="line;html=1;strokeWidth=1;fillColor=none;align=left;verticalAlign=middle;spacingTop=-1;spacingLeft=3;spacingRight=3;rotatable=0;labelPosition=right;points=[];portConstraint=eastwest;" parent="_SBceAVWX3WUUOqYOyA2-2" vertex="1">
          <mxGeometry y="26" width="160" height="8" as="geometry" />
        </mxCell>
        <mxCell id="0M7djDL0bi_taNWErHJm-1" value="+ draw(g):void" style="text;html=1;strokeColor=none;fillColor=none;align=left;verticalAlign=top;spacingLeft=4;spacingRight=4;whiteSpace=wrap;overflow=hidden;rotatable=0;points=[[0,0.5],[1,0.5]];portConstraint=eastwest;" parent="_SBceAVWX3WUUOqYOyA2-2" vertex="1">
          <mxGeometry y="34" width="160" height="40" as="geometry" />
        </mxCell>
        <mxCell id="_SBceAVWX3WUUOqYOyA2-11" value="Circle" style="swimlane;html=1;fontStyle=1;align=center;verticalAlign=top;childLayout=stackLayout;horizontal=1;startSize=26;horizontalStack=0;resizeParent=1;resizeLast=0;collapsible=1;marginBottom=0;swimlaneFillColor=#ffffff;rounded=0;shadow=0;comic=0;labelBackgroundColor=none;strokeWidth=1;fillColor=none;fontFamily=Verdana;fontSize=12" parent="1" vertex="1">
          <mxGeometry x="710" y="513" width="160" height="227" as="geometry" />
        </mxCell>
        <mxCell id="_SBceAVWX3WUUOqYOyA2-17" value="" style="line;html=1;strokeWidth=1;fillColor=none;align=left;verticalAlign=middle;spacingTop=-1;spacingLeft=3;spacingRight=3;rotatable=0;labelPosition=right;points=[];portConstraint=eastwest;" parent="_SBceAVWX3WUUOqYOyA2-11" vertex="1">
          <mxGeometry y="26" width="160" height="8" as="geometry" />
        </mxCell>
        <mxCell id="0M7djDL0bi_taNWErHJm-2" value="+ draw(g):void" style="text;html=1;strokeColor=none;fillColor=none;align=left;verticalAlign=top;spacingLeft=4;spacingRight=4;whiteSpace=wrap;overflow=hidden;rotatable=0;points=[[0,0.5],[1,0.5]];portConstraint=eastwest;" parent="_SBceAVWX3WUUOqYOyA2-11" vertex="1">
          <mxGeometry y="34" width="160" height="40" as="geometry" />
        </mxCell>
        <mxCell id="_SBceAVWX3WUUOqYOyA2-21" value="Views.CanvasView" style="swimlane;html=1;fontStyle=1;align=center;verticalAlign=top;childLayout=stackLayout;horizontal=1;startSize=26;horizontalStack=0;resizeParent=1;resizeLast=0;collapsible=1;marginBottom=0;swimlaneFillColor=#ffffff;rounded=0;shadow=0;comic=0;labelBackgroundColor=none;strokeWidth=1;fillColor=none;fontFamily=Verdana;fontSize=12" parent="1" vertex="1">
          <mxGeometry x="-440" y="70" width="270" height="227" as="geometry" />
        </mxCell>
        <mxCell id="_SBceAVWX3WUUOqYOyA2-22" value="+ cc: CanvasController" style="text;html=1;strokeColor=none;fillColor=none;align=left;verticalAlign=top;spacingLeft=4;spacingRight=4;whiteSpace=wrap;overflow=hidden;rotatable=0;points=[[0,0.5],[1,0.5]];portConstraint=eastwest;" parent="_SBceAVWX3WUUOqYOyA2-21" vertex="1">
          <mxGeometry y="26" width="270" height="26" as="geometry" />
        </mxCell>
        <mxCell id="CTU3B9LjLXjwIvUNFoW7-11" value="+ mc: MenuController" style="text;html=1;strokeColor=none;fillColor=none;align=left;verticalAlign=top;spacingLeft=4;spacingRight=4;whiteSpace=wrap;overflow=hidden;rotatable=0;points=[[0,0.5],[1,0.5]];portConstraint=eastwest;" vertex="1" parent="_SBceAVWX3WUUOqYOyA2-21">
          <mxGeometry y="52" width="270" height="26" as="geometry" />
        </mxCell>
        <mxCell id="_SBceAVWX3WUUOqYOyA2-27" value="" style="line;html=1;strokeWidth=1;fillColor=none;align=left;verticalAlign=middle;spacingTop=-1;spacingLeft=3;spacingRight=3;rotatable=0;labelPosition=right;points=[];portConstraint=eastwest;" parent="_SBceAVWX3WUUOqYOyA2-21" vertex="1">
          <mxGeometry y="78" width="270" height="30" as="geometry" />
        </mxCell>
        <mxCell id="_SBceAVWX3WUUOqYOyA2-28" value="+ update(Observable, Object) : void" style="text;html=1;strokeColor=none;fillColor=none;align=left;verticalAlign=top;spacingLeft=4;spacingRight=4;whiteSpace=wrap;overflow=hidden;rotatable=0;points=[[0,0.5],[1,0.5]];portConstraint=eastwest;" parent="_SBceAVWX3WUUOqYOyA2-21" vertex="1">
          <mxGeometry y="108" width="270" height="26" as="geometry" />
        </mxCell>
        <mxCell id="_SBceAVWX3WUUOqYOyA2-29" value="+ paintComponent(Graphics) : void" style="text;html=1;strokeColor=none;fillColor=none;align=left;verticalAlign=top;spacingLeft=4;spacingRight=4;whiteSpace=wrap;overflow=hidden;rotatable=0;points=[[0,0.5],[1,0.5]];portConstraint=eastwest;" parent="_SBceAVWX3WUUOqYOyA2-21" vertex="1">
          <mxGeometry y="134" width="270" height="26" as="geometry" />
        </mxCell>
        <mxCell id="_SBceAVWX3WUUOqYOyA2-30" value="Square" style="swimlane;html=1;fontStyle=1;align=center;verticalAlign=top;childLayout=stackLayout;horizontal=1;startSize=26;horizontalStack=0;resizeParent=1;resizeLast=0;collapsible=1;marginBottom=0;swimlaneFillColor=#ffffff;rounded=0;shadow=0;comic=0;labelBackgroundColor=none;strokeWidth=1;fillColor=none;fontFamily=Verdana;fontSize=12" parent="1" vertex="1">
          <mxGeometry x="360" y="800" width="160" height="110" as="geometry" />
        </mxCell>
        <mxCell id="_SBceAVWX3WUUOqYOyA2-36" value="" style="line;html=1;strokeWidth=1;fillColor=none;align=left;verticalAlign=middle;spacingTop=-1;spacingLeft=3;spacingRight=3;rotatable=0;labelPosition=right;points=[];portConstraint=eastwest;" parent="_SBceAVWX3WUUOqYOyA2-30" vertex="1">
          <mxGeometry y="26" width="160" height="8" as="geometry" />
        </mxCell>
        <mxCell id="0M7djDL0bi_taNWErHJm-3" value="+ draw(g):void" style="text;html=1;strokeColor=none;fillColor=none;align=left;verticalAlign=top;spacingLeft=4;spacingRight=4;whiteSpace=wrap;overflow=hidden;rotatable=0;points=[[0,0.5],[1,0.5]];portConstraint=eastwest;" parent="_SBceAVWX3WUUOqYOyA2-30" vertex="1">
          <mxGeometry y="34" width="160" height="40" as="geometry" />
        </mxCell>
        <mxCell id="_SBceAVWX3WUUOqYOyA2-39" value="Extends" style="endArrow=block;endSize=16;endFill=0;html=1;exitX=0.569;exitY=-0.018;exitDx=0;exitDy=0;exitPerimeter=0;" parent="1" source="_SBceAVWX3WUUOqYOyA2-30" edge="1">
          <mxGeometry width="160" relative="1" as="geometry">
            <mxPoint x="287.03999999999996" y="800.049" as="sourcePoint" />
            <mxPoint x="450" y="680" as="targetPoint" />
          </mxGeometry>
        </mxCell>
        <mxCell id="CTU3B9LjLXjwIvUNFoW7-9" style="edgeStyle=orthogonalEdgeStyle;rounded=0;orthogonalLoop=1;jettySize=auto;html=1;exitX=0.5;exitY=1;exitDx=0;exitDy=0;" edge="1" parent="1" source="4_bB-vSsy7LAxxvjSIpe-5">
          <mxGeometry relative="1" as="geometry">
            <mxPoint x="164.69230769230762" y="320" as="targetPoint" />
          </mxGeometry>
        </mxCell>
        <mxCell id="4_bB-vSsy7LAxxvjSIpe-5" value="&lt;div&gt;&lt;i&gt;Mediator&lt;/i&gt;&lt;/div&gt;" style="swimlane;html=1;fontStyle=1;align=center;verticalAlign=top;childLayout=stackLayout;horizontal=1;startSize=30;horizontalStack=0;resizeParent=1;resizeLast=0;collapsible=1;marginBottom=0;swimlaneFillColor=#ffffff;rounded=0;shadow=0;comic=0;labelBackgroundColor=none;strokeWidth=1;fillColor=none;fontFamily=Verdana;fontSize=12" parent="1" vertex="1">
          <mxGeometry x="10" y="-250" width="310" height="570" as="geometry" />
        </mxCell>
        <mxCell id="4_bB-vSsy7LAxxvjSIpe-6" value="&lt;div&gt;+ private final shape : ArrayList&amp;lt;ShapeGeom&amp;gt;&lt;br&gt;&lt;/div&gt;&lt;div&gt;&lt;br&gt;&lt;/div&gt;" style="text;html=1;strokeColor=none;fillColor=none;align=left;verticalAlign=top;spacingLeft=4;spacingRight=4;whiteSpace=wrap;overflow=hidden;rotatable=0;points=[[0,0.5],[1,0.5]];portConstraint=eastwest;" parent="4_bB-vSsy7LAxxvjSIpe-5" vertex="1">
          <mxGeometry y="30" width="310" height="22" as="geometry" />
        </mxCell>
        <mxCell id="4_bB-vSsy7LAxxvjSIpe-11" value="&lt;div&gt;private selectedShape : ShapeGeom&lt;/div&gt;&lt;div&gt;&lt;br&gt;&lt;/div&gt;" style="text;html=1;strokeColor=none;fillColor=none;align=left;verticalAlign=top;spacingLeft=4;spacingRight=4;whiteSpace=wrap;overflow=hidden;rotatable=0;points=[[0,0.5],[1,0.5]];portConstraint=eastwest;" parent="4_bB-vSsy7LAxxvjSIpe-5" vertex="1">
          <mxGeometry y="52" width="310" height="28" as="geometry" />
        </mxCell>
        <mxCell id="CTU3B9LjLXjwIvUNFoW7-2" value="&lt;div&gt;private loader : AssetLoader&lt;/div&gt;" style="text;html=1;strokeColor=none;fillColor=none;align=left;verticalAlign=top;spacingLeft=4;spacingRight=4;whiteSpace=wrap;overflow=hidden;rotatable=0;points=[[0,0.5],[1,0.5]];portConstraint=eastwest;" vertex="1" parent="4_bB-vSsy7LAxxvjSIpe-5">
          <mxGeometry y="80" width="310" height="22" as="geometry" />
        </mxCell>
        <mxCell id="4_bB-vSsy7LAxxvjSIpe-12" value="" style="line;html=1;strokeWidth=1;fillColor=none;align=left;verticalAlign=middle;spacingTop=-1;spacingLeft=3;spacingRight=3;rotatable=0;labelPosition=right;points=[];portConstraint=eastwest;" parent="4_bB-vSsy7LAxxvjSIpe-5" vertex="1">
          <mxGeometry y="102" width="310" height="10" as="geometry" />
        </mxCell>
        <mxCell id="tLEsD_sJ9pswuAgxyoLn-1" value="+ Mediator(AssertLoader loader)" style="text;html=1;strokeColor=none;fillColor=none;align=left;verticalAlign=top;spacingLeft=4;spacingRight=4;whiteSpace=wrap;overflow=hidden;rotatable=0;points=[[0,0.5],[1,0.5]];portConstraint=eastwest;" parent="4_bB-vSsy7LAxxvjSIpe-5" vertex="1">
          <mxGeometry y="112" width="310" height="26" as="geometry" />
        </mxCell>
        <mxCell id="oSvIhVIX3z2i7XlrZZki-8" value="+ update() : void" style="text;html=1;strokeColor=none;fillColor=none;align=left;verticalAlign=top;spacingLeft=4;spacingRight=4;whiteSpace=wrap;overflow=hidden;rotatable=0;points=[[0,0.5],[1,0.5]];portConstraint=eastwest;" parent="4_bB-vSsy7LAxxvjSIpe-5" vertex="1">
          <mxGeometry y="138" width="310" height="26" as="geometry" />
        </mxCell>
        <mxCell id="tLEsD_sJ9pswuAgxyoLn-2" value="+ createShape(ShapeType, List&amp;lt;Points&amp;gt;) : void" style="text;html=1;strokeColor=none;fillColor=none;align=left;verticalAlign=top;spacingLeft=4;spacingRight=4;whiteSpace=wrap;overflow=hidden;rotatable=0;points=[[0,0.5],[1,0.5]];portConstraint=eastwest;" parent="4_bB-vSsy7LAxxvjSIpe-5" vertex="1">
          <mxGeometry y="164" width="310" height="26" as="geometry" />
        </mxCell>
        <mxCell id="4_bB-vSsy7LAxxvjSIpe-15" value="+ addShape(ShapeType, List&amp;lt;Point&amp;gt;): void" style="text;html=1;strokeColor=none;fillColor=none;align=left;verticalAlign=top;spacingLeft=4;spacingRight=4;whiteSpace=wrap;overflow=hidden;rotatable=0;points=[[0,0.5],[1,0.5]];portConstraint=eastwest;" parent="4_bB-vSsy7LAxxvjSIpe-5" vertex="1">
          <mxGeometry y="190" width="310" height="26" as="geometry" />
        </mxCell>
        <mxCell id="4_bB-vSsy7LAxxvjSIpe-16" value="+ getSelectedShape() : ShapeGeom" style="text;html=1;strokeColor=none;fillColor=none;align=left;verticalAlign=top;spacingLeft=4;spacingRight=4;whiteSpace=wrap;overflow=hidden;rotatable=0;points=[[0,0.5],[1,0.5]];portConstraint=eastwest;" parent="4_bB-vSsy7LAxxvjSIpe-5" vertex="1">
          <mxGeometry y="216" width="310" height="26" as="geometry" />
        </mxCell>
        <mxCell id="4_bB-vSsy7LAxxvjSIpe-17" value="+ addShape(ShapeGeom) : void" style="text;html=1;strokeColor=none;fillColor=none;align=left;verticalAlign=top;spacingLeft=4;spacingRight=4;whiteSpace=wrap;overflow=hidden;rotatable=0;points=[[0,0.5],[1,0.5]];portConstraint=eastwest;" parent="4_bB-vSsy7LAxxvjSIpe-5" vertex="1">
          <mxGeometry y="242" width="310" height="26" as="geometry" />
        </mxCell>
        <mxCell id="-TnKxgi97NMcGOh5BOXl-1" value="+ removeShape() : void" style="text;html=1;strokeColor=none;fillColor=none;align=left;verticalAlign=top;spacingLeft=4;spacingRight=4;whiteSpace=wrap;overflow=hidden;rotatable=0;points=[[0,0.5],[1,0.5]];portConstraint=eastwest;" parent="4_bB-vSsy7LAxxvjSIpe-5" vertex="1">
          <mxGeometry y="268" width="310" height="32" as="geometry" />
        </mxCell>
        <mxCell id="-TnKxgi97NMcGOh5BOXl-2" value="+ removeAll() : void" style="text;html=1;strokeColor=none;fillColor=none;align=left;verticalAlign=top;spacingLeft=4;spacingRight=4;whiteSpace=wrap;overflow=hidden;rotatable=0;points=[[0,0.5],[1,0.5]];portConstraint=eastwest;" parent="4_bB-vSsy7LAxxvjSIpe-5" vertex="1">
          <mxGeometry y="300" width="310" height="30" as="geometry" />
        </mxCell>
        <mxCell id="-TnKxgi97NMcGOh5BOXl-3" value="+ bringForward() : void" style="text;html=1;strokeColor=none;fillColor=none;align=left;verticalAlign=top;spacingLeft=4;spacingRight=4;whiteSpace=wrap;overflow=hidden;rotatable=0;points=[[0,0.5],[1,0.5]];portConstraint=eastwest;" parent="4_bB-vSsy7LAxxvjSIpe-5" vertex="1">
          <mxGeometry y="330" width="310" height="30" as="geometry" />
        </mxCell>
        <mxCell id="-TnKxgi97NMcGOh5BOXl-4" value="+ sendBackward() : void" style="text;html=1;strokeColor=none;fillColor=none;align=left;verticalAlign=top;spacingLeft=4;spacingRight=4;whiteSpace=wrap;overflow=hidden;rotatable=0;points=[[0,0.5],[1,0.5]];portConstraint=eastwest;" parent="4_bB-vSsy7LAxxvjSIpe-5" vertex="1">
          <mxGeometry y="360" width="310" height="30" as="geometry" />
        </mxCell>
        <mxCell id="CTU3B9LjLXjwIvUNFoW7-3" value="+ shapeIntersect(MouseEvent) : boolean" style="text;html=1;strokeColor=none;fillColor=none;align=left;verticalAlign=top;spacingLeft=4;spacingRight=4;whiteSpace=wrap;overflow=hidden;rotatable=0;points=[[0,0.5],[1,0.5]];portConstraint=eastwest;" vertex="1" parent="4_bB-vSsy7LAxxvjSIpe-5">
          <mxGeometry y="390" width="310" height="30" as="geometry" />
        </mxCell>
        <mxCell id="CTU3B9LjLXjwIvUNFoW7-4" value="+ memoIntersect(MouseEvent) : Point" style="text;html=1;strokeColor=none;fillColor=none;align=left;verticalAlign=top;spacingLeft=4;spacingRight=4;whiteSpace=wrap;overflow=hidden;rotatable=0;points=[[0,0.5],[1,0.5]];portConstraint=eastwest;" vertex="1" parent="4_bB-vSsy7LAxxvjSIpe-5">
          <mxGeometry y="420" width="310" height="30" as="geometry" />
        </mxCell>
        <mxCell id="CTU3B9LjLXjwIvUNFoW7-5" value="+ translate(int offset_x, int offset_y) : void" style="text;html=1;strokeColor=none;fillColor=none;align=left;verticalAlign=top;spacingLeft=4;spacingRight=4;whiteSpace=wrap;overflow=hidden;rotatable=0;points=[[0,0.5],[1,0.5]];portConstraint=eastwest;" vertex="1" parent="4_bB-vSsy7LAxxvjSIpe-5">
          <mxGeometry y="450" width="310" height="30" as="geometry" />
        </mxCell>
        <mxCell id="CTU3B9LjLXjwIvUNFoW7-6" value="+ draw() : void" style="text;html=1;strokeColor=none;fillColor=none;align=left;verticalAlign=top;spacingLeft=4;spacingRight=4;whiteSpace=wrap;overflow=hidden;rotatable=0;points=[[0,0.5],[1,0.5]];portConstraint=eastwest;" vertex="1" parent="4_bB-vSsy7LAxxvjSIpe-5">
          <mxGeometry y="480" width="310" height="30" as="geometry" />
        </mxCell>
        <mxCell id="CTU3B9LjLXjwIvUNFoW7-7" value="+ getResource( String resource) : Object" style="text;html=1;strokeColor=none;fillColor=none;align=left;verticalAlign=top;spacingLeft=4;spacingRight=4;whiteSpace=wrap;overflow=hidden;rotatable=0;points=[[0,0.5],[1,0.5]];portConstraint=eastwest;" vertex="1" parent="4_bB-vSsy7LAxxvjSIpe-5">
          <mxGeometry y="510" width="310" height="30" as="geometry" />
        </mxCell>
        <mxCell id="4_bB-vSsy7LAxxvjSIpe-22" value="MenuView" style="swimlane;html=1;fontStyle=1;align=center;verticalAlign=top;childLayout=stackLayout;horizontal=1;startSize=26;horizontalStack=0;resizeParent=1;resizeLast=0;collapsible=1;marginBottom=0;swimlaneFillColor=#ffffff;rounded=0;shadow=0;comic=0;labelBackgroundColor=none;strokeWidth=1;fillColor=none;fontFamily=Verdana;fontSize=12" parent="1" vertex="1">
          <mxGeometry x="-720" y="70" width="240" height="260" as="geometry" />
        </mxCell>
        <mxCell id="4_bB-vSsy7LAxxvjSIpe-23" value="- mc MenuController" style="text;html=1;strokeColor=none;fillColor=none;align=left;verticalAlign=top;spacingLeft=4;spacingRight=4;whiteSpace=wrap;overflow=hidden;rotatable=0;points=[[0,0.5],[1,0.5]];portConstraint=eastwest;" parent="4_bB-vSsy7LAxxvjSIpe-22" vertex="1">
          <mxGeometry y="26" width="240" height="26" as="geometry" />
        </mxCell>
        <mxCell id="4_bB-vSsy7LAxxvjSIpe-28" value="" style="line;html=1;strokeWidth=1;fillColor=none;align=left;verticalAlign=middle;spacingTop=-1;spacingLeft=3;spacingRight=3;rotatable=0;labelPosition=right;points=[];portConstraint=eastwest;" parent="4_bB-vSsy7LAxxvjSIpe-22" vertex="1">
          <mxGeometry y="52" width="240" height="8" as="geometry" />
        </mxCell>
        <mxCell id="4_bB-vSsy7LAxxvjSIpe-29" value="+ paintComponent(Graphics): void" style="text;html=1;strokeColor=none;fillColor=none;align=left;verticalAlign=top;spacingLeft=4;spacingRight=4;whiteSpace=wrap;overflow=hidden;rotatable=0;points=[[0,0.5],[1,0.5]];portConstraint=eastwest;" parent="4_bB-vSsy7LAxxvjSIpe-22" vertex="1">
          <mxGeometry y="60" width="240" height="26" as="geometry" />
        </mxCell>
        <mxCell id="4_bB-vSsy7LAxxvjSIpe-30" value="+ createShapeButton(String) : JButton" style="text;html=1;strokeColor=none;fillColor=none;align=left;verticalAlign=top;spacingLeft=4;spacingRight=4;whiteSpace=wrap;overflow=hidden;rotatable=0;points=[[0,0.5],[1,0.5]];portConstraint=eastwest;" parent="4_bB-vSsy7LAxxvjSIpe-22" vertex="1">
          <mxGeometry y="86" width="240" height="26" as="geometry" />
        </mxCell>
        <mxCell id="CTU3B9LjLXjwIvUNFoW7-14" value="+ createShapesPanel() : JPanel" style="text;html=1;strokeColor=none;fillColor=none;align=left;verticalAlign=top;spacingLeft=4;spacingRight=4;whiteSpace=wrap;overflow=hidden;rotatable=0;points=[[0,0.5],[1,0.5]];portConstraint=eastwest;" vertex="1" parent="4_bB-vSsy7LAxxvjSIpe-22">
          <mxGeometry y="112" width="240" height="26" as="geometry" />
        </mxCell>
        <mxCell id="CTU3B9LjLXjwIvUNFoW7-13" value="+ createToolsPanel() : JPanel" style="text;html=1;strokeColor=none;fillColor=none;align=left;verticalAlign=top;spacingLeft=4;spacingRight=4;whiteSpace=wrap;overflow=hidden;rotatable=0;points=[[0,0.5],[1,0.5]];portConstraint=eastwest;" vertex="1" parent="4_bB-vSsy7LAxxvjSIpe-22">
          <mxGeometry y="138" width="240" height="26" as="geometry" />
        </mxCell>
        <mxCell id="CTU3B9LjLXjwIvUNFoW7-15" value="+ createSubMenuLabel(String): JLabel&lt;span style=&quot;color: rgba(0 , 0 , 0 , 0) ; font-family: monospace ; font-size: 0px&quot;&gt;%3CmxGraphModel%3E%3Croot%3E%3CmxCell%20id%3D%220%22%2F%3E%3CmxCell%20id%3D%221%22%20parent%3D%220%22%2F%3E%3CmxCell%20id%3D%222%22%20value%3D%22%2B%20createShapeButton(String)%20%3A%20JButton%22%20style%3D%22text%3Bhtml%3D1%3BstrokeColor%3Dnone%3BfillColor%3Dnone%3Balign%3Dleft%3BverticalAlign%3Dtop%3BspacingLeft%3D4%3BspacingRight%3D4%3BwhiteSpace%3Dwrap%3Boverflow%3Dhidden%3Brotatable%3D0%3Bpoints%3D%5B%5B0%2C0.5%5D%2C%5B1%2C0.5%5D%5D%3BportConstraint%3Deastwest%3B%22%20vertex%3D%221%22%20parent%3D%221%22%3E%3CmxGeometry%20x%3D%22-720%22%20y%3D%22156%22%20width%3D%22240%22%20height%3D%2226%22%20as%3D%22geometry%22%2F%3E%3C%2FmxCell%3E%3C%2Froot%3E%3C%2FmxGraphModel%3E&lt;/span&gt;" style="text;html=1;strokeColor=none;fillColor=none;align=left;verticalAlign=top;spacingLeft=4;spacingRight=4;whiteSpace=wrap;overflow=hidden;rotatable=0;points=[[0,0.5],[1,0.5]];portConstraint=eastwest;" vertex="1" parent="4_bB-vSsy7LAxxvjSIpe-22">
          <mxGeometry y="164" width="240" height="26" as="geometry" />
        </mxCell>
        <mxCell id="CTU3B9LjLXjwIvUNFoW7-16" value="+ buttonFormat(JButton) : void" style="text;html=1;strokeColor=none;fillColor=none;align=left;verticalAlign=top;spacingLeft=4;spacingRight=4;whiteSpace=wrap;overflow=hidden;rotatable=0;points=[[0,0.5],[1,0.5]];portConstraint=eastwest;" vertex="1" parent="4_bB-vSsy7LAxxvjSIpe-22">
          <mxGeometry y="190" width="240" height="26" as="geometry" />
        </mxCell>
        <mxCell id="CTU3B9LjLXjwIvUNFoW7-17" value="+ update(Observable, Object) : void" style="text;html=1;strokeColor=none;fillColor=none;align=left;verticalAlign=top;spacingLeft=4;spacingRight=4;whiteSpace=wrap;overflow=hidden;rotatable=0;points=[[0,0.5],[1,0.5]];portConstraint=eastwest;" vertex="1" parent="4_bB-vSsy7LAxxvjSIpe-22">
          <mxGeometry y="216" width="240" height="26" as="geometry" />
        </mxCell>
        <mxCell id="_2XkQiwsp4mKMtn9n1sC-3" value="&lt;div&gt;Observable&lt;/div&gt;" style="html=1;" parent="1" vertex="1">
          <mxGeometry x="495" y="-110" width="110" height="50" as="geometry" />
        </mxCell>
        <mxCell id="_2XkQiwsp4mKMtn9n1sC-4" value="Extends" style="endArrow=block;endSize=16;endFill=0;html=1;exitX=0.5;exitY=1;exitDx=0;exitDy=0;entryX=0.5;entryY=0;entryDx=0;entryDy=0;" parent="1" source="_2XkQiwsp4mKMtn9n1sC-3" target="78961159f06e98e8-17" edge="1">
          <mxGeometry width="160" relative="1" as="geometry">
            <mxPoint x="280" y="230" as="sourcePoint" />
            <mxPoint x="440" y="230" as="targetPoint" />
          </mxGeometry>
        </mxCell>
        <mxCell id="_2XkQiwsp4mKMtn9n1sC-6" value="«interface»&lt;br&gt;&lt;div&gt;&lt;b&gt;Observer&lt;/b&gt;&lt;/div&gt;" style="html=1;" parent="1" vertex="1">
          <mxGeometry x="-510" y="-70" width="110" height="50" as="geometry" />
        </mxCell>
        <mxCell id="_2XkQiwsp4mKMtn9n1sC-8" value="" style="endArrow=block;dashed=1;endFill=0;endSize=12;html=1;exitX=0.842;exitY=1.031;exitDx=0;exitDy=0;exitPerimeter=0;" parent="1" source="_2XkQiwsp4mKMtn9n1sC-6" target="_SBceAVWX3WUUOqYOyA2-21" edge="1">
          <mxGeometry width="160" relative="1" as="geometry">
            <mxPoint x="-280" y="-1" as="sourcePoint" />
            <mxPoint x="-120" y="-1" as="targetPoint" />
          </mxGeometry>
        </mxCell>
        <mxCell id="_2XkQiwsp4mKMtn9n1sC-9" value="" style="endArrow=block;dashed=1;endFill=0;endSize=12;html=1;exitX=0.158;exitY=1.101;exitDx=0;exitDy=0;exitPerimeter=0;entryX=0.828;entryY=0;entryDx=0;entryDy=0;entryPerimeter=0;" parent="1" source="_2XkQiwsp4mKMtn9n1sC-6" target="4_bB-vSsy7LAxxvjSIpe-22" edge="1">
          <mxGeometry width="160" relative="1" as="geometry">
            <mxPoint x="-40" y="190" as="sourcePoint" />
            <mxPoint x="120" y="190" as="targetPoint" />
          </mxGeometry>
        </mxCell>
        <mxCell id="_2XkQiwsp4mKMtn9n1sC-10" style="edgeStyle=orthogonalEdgeStyle;rounded=0;orthogonalLoop=1;jettySize=auto;html=1;" parent="1" source="_SBceAVWX3WUUOqYOyA2-21" target="4_bB-vSsy7LAxxvjSIpe-11" edge="1">
          <mxGeometry relative="1" as="geometry">
            <mxPoint x="-160" as="sourcePoint" />
          </mxGeometry>
        </mxCell>
        <mxCell id="_2XkQiwsp4mKMtn9n1sC-11" style="edgeStyle=orthogonalEdgeStyle;rounded=0;orthogonalLoop=1;jettySize=auto;html=1;exitX=1;exitY=0.5;exitDx=0;exitDy=0;entryX=-0.003;entryY=0.07;entryDx=0;entryDy=0;entryPerimeter=0;" parent="1" source="4_bB-vSsy7LAxxvjSIpe-15" target="78961159f06e98e8-17" edge="1">
          <mxGeometry relative="1" as="geometry" />
        </mxCell>
        <mxCell id="_2XkQiwsp4mKMtn9n1sC-12" value="MouseAdapter" style="html=1;" parent="1" vertex="1">
          <mxGeometry x="-480" y="460" width="110" height="50" as="geometry" />
        </mxCell>
        <mxCell id="_2XkQiwsp4mKMtn9n1sC-13" value="Controllers.CanvasController" style="swimlane;fontStyle=1;align=center;verticalAlign=top;childLayout=stackLayout;horizontal=1;startSize=26;horizontalStack=0;resizeParent=1;resizeParentMax=0;resizeLast=0;collapsible=1;marginBottom=0;" parent="1" vertex="1">
          <mxGeometry x="-420" y="600" width="260" height="164" as="geometry" />
        </mxCell>
        <mxCell id="_2XkQiwsp4mKMtn9n1sC-14" value="- Mediator : m" style="text;strokeColor=none;fillColor=none;align=left;verticalAlign=top;spacingLeft=4;spacingRight=4;overflow=hidden;rotatable=0;points=[[0,0.5],[1,0.5]];portConstraint=eastwest;" parent="_2XkQiwsp4mKMtn9n1sC-13" vertex="1">
          <mxGeometry y="26" width="260" height="26" as="geometry" />
        </mxCell>
        <mxCell id="_2XkQiwsp4mKMtn9n1sC-15" value="" style="line;strokeWidth=1;fillColor=none;align=left;verticalAlign=middle;spacingTop=-1;spacingLeft=3;spacingRight=3;rotatable=0;labelPosition=right;points=[];portConstraint=eastwest;" parent="_2XkQiwsp4mKMtn9n1sC-13" vertex="1">
          <mxGeometry y="52" width="260" height="8" as="geometry" />
        </mxCell>
        <mxCell id="_2XkQiwsp4mKMtn9n1sC-16" value="+ mousePressed(MouseEvent e): void" style="text;strokeColor=none;fillColor=none;align=left;verticalAlign=top;spacingLeft=4;spacingRight=4;overflow=hidden;rotatable=0;points=[[0,0.5],[1,0.5]];portConstraint=eastwest;" parent="_2XkQiwsp4mKMtn9n1sC-13" vertex="1">
          <mxGeometry y="60" width="260" height="26" as="geometry" />
        </mxCell>
        <mxCell id="oSvIhVIX3z2i7XlrZZki-3" value="+ mouseReleased(MouseEvent e): void" style="text;strokeColor=none;fillColor=none;align=left;verticalAlign=top;spacingLeft=4;spacingRight=4;overflow=hidden;rotatable=0;points=[[0,0.5],[1,0.5]];portConstraint=eastwest;" parent="_2XkQiwsp4mKMtn9n1sC-13" vertex="1">
          <mxGeometry y="86" width="260" height="26" as="geometry" />
        </mxCell>
        <mxCell id="oSvIhVIX3z2i7XlrZZki-1" value="+ mouseDragged(MouseEvent e): void" style="text;strokeColor=none;fillColor=none;align=left;verticalAlign=top;spacingLeft=4;spacingRight=4;overflow=hidden;rotatable=0;points=[[0,0.5],[1,0.5]];portConstraint=eastwest;" parent="_2XkQiwsp4mKMtn9n1sC-13" vertex="1">
          <mxGeometry y="112" width="260" height="26" as="geometry" />
        </mxCell>
        <mxCell id="oSvIhVIX3z2i7XlrZZki-2" value="+ mouseMoved(MouseEvent e): void" style="text;strokeColor=none;fillColor=none;align=left;verticalAlign=top;spacingLeft=4;spacingRight=4;overflow=hidden;rotatable=0;points=[[0,0.5],[1,0.5]];portConstraint=eastwest;" parent="_2XkQiwsp4mKMtn9n1sC-13" vertex="1">
          <mxGeometry y="138" width="260" height="26" as="geometry" />
        </mxCell>
        <mxCell id="_2XkQiwsp4mKMtn9n1sC-17" value="Extends" style="endArrow=none;endSize=16;endFill=0;html=1;exitX=0.5;exitY=0;exitDx=0;exitDy=0;entryX=0.5;entryY=1;entryDx=0;entryDy=0;startArrow=block;startFill=0;" parent="1" source="_2XkQiwsp4mKMtn9n1sC-13" target="_2XkQiwsp4mKMtn9n1sC-12" edge="1">
          <mxGeometry width="160" relative="1" as="geometry">
            <mxPoint x="70" y="350" as="sourcePoint" />
            <mxPoint x="230" y="350" as="targetPoint" />
          </mxGeometry>
        </mxCell>
        <mxCell id="_2XkQiwsp4mKMtn9n1sC-18" style="edgeStyle=orthogonalEdgeStyle;rounded=0;orthogonalLoop=1;jettySize=auto;html=1;exitX=1;exitY=0.5;exitDx=0;exitDy=0;" parent="1" source="_2XkQiwsp4mKMtn9n1sC-14" edge="1">
          <mxGeometry relative="1" as="geometry">
            <mxPoint x="10" y="390" as="targetPoint" />
            <Array as="points">
              <mxPoint x="10" y="639" />
            </Array>
          </mxGeometry>
        </mxCell>
        <mxCell id="_2XkQiwsp4mKMtn9n1sC-19" value="Extends" style="endArrow=block;endSize=16;endFill=0;html=1;exitX=0.623;exitY=-0.017;exitDx=0;exitDy=0;exitPerimeter=0;entryX=0.232;entryY=1.035;entryDx=0;entryDy=0;entryPerimeter=0;" parent="1" source="_SBceAVWX3WUUOqYOyA2-2" target="_2XkQiwsp4mKMtn9n1sC-2" edge="1">
          <mxGeometry width="160" relative="1" as="geometry">
            <mxPoint x="70" y="400" as="sourcePoint" />
            <mxPoint x="230" y="400" as="targetPoint" />
          </mxGeometry>
        </mxCell>
        <mxCell id="_2XkQiwsp4mKMtn9n1sC-21" value="Extends" style="endArrow=block;endSize=16;endFill=0;html=1;exitX=0;exitY=0;exitDx=0;exitDy=0;entryX=0.661;entryY=1.006;entryDx=0;entryDy=0;entryPerimeter=0;" parent="1" source="_SBceAVWX3WUUOqYOyA2-11" target="_2XkQiwsp4mKMtn9n1sC-2" edge="1">
          <mxGeometry width="160" relative="1" as="geometry">
            <mxPoint x="661.04" y="680" as="sourcePoint" />
            <mxPoint x="659.9999999999995" y="571.98" as="targetPoint" />
          </mxGeometry>
        </mxCell>
        <mxCell id="_2XkQiwsp4mKMtn9n1sC-26" value="Controllers.MenuController" style="swimlane;fontStyle=1;align=center;verticalAlign=top;childLayout=stackLayout;horizontal=1;startSize=26;horizontalStack=0;resizeParent=1;resizeParentMax=0;resizeLast=0;collapsible=1;marginBottom=0;" parent="1" vertex="1">
          <mxGeometry x="-690" y="600" width="200" height="86" as="geometry" />
        </mxCell>
        <mxCell id="_2XkQiwsp4mKMtn9n1sC-27" value="+ field: type" style="text;strokeColor=none;fillColor=none;align=left;verticalAlign=top;spacingLeft=4;spacingRight=4;overflow=hidden;rotatable=0;points=[[0,0.5],[1,0.5]];portConstraint=eastwest;" parent="_2XkQiwsp4mKMtn9n1sC-26" vertex="1">
          <mxGeometry y="26" width="200" height="26" as="geometry" />
        </mxCell>
        <mxCell id="_2XkQiwsp4mKMtn9n1sC-28" value="" style="line;strokeWidth=1;fillColor=none;align=left;verticalAlign=middle;spacingTop=-1;spacingLeft=3;spacingRight=3;rotatable=0;labelPosition=right;points=[];portConstraint=eastwest;" parent="_2XkQiwsp4mKMtn9n1sC-26" vertex="1">
          <mxGeometry y="52" width="200" height="8" as="geometry" />
        </mxCell>
        <mxCell id="_2XkQiwsp4mKMtn9n1sC-29" value="+ method(type): type" style="text;strokeColor=none;fillColor=none;align=left;verticalAlign=top;spacingLeft=4;spacingRight=4;overflow=hidden;rotatable=0;points=[[0,0.5],[1,0.5]];portConstraint=eastwest;" parent="_2XkQiwsp4mKMtn9n1sC-26" vertex="1">
          <mxGeometry y="60" width="200" height="26" as="geometry" />
        </mxCell>
        <mxCell id="_2XkQiwsp4mKMtn9n1sC-31" value="«interface»&lt;br&gt;&lt;b&gt;ActionListener&lt;/b&gt;" style="html=1;" parent="1" vertex="1">
          <mxGeometry x="-630" y="490" width="110" height="50" as="geometry" />
        </mxCell>
        <mxCell id="_2XkQiwsp4mKMtn9n1sC-32" value="" style="endArrow=block;dashed=1;endFill=0;endSize=12;html=1;exitX=0.5;exitY=0;exitDx=0;exitDy=0;entryX=0.639;entryY=1.078;entryDx=0;entryDy=0;entryPerimeter=0;" parent="1" source="_2XkQiwsp4mKMtn9n1sC-26" target="_2XkQiwsp4mKMtn9n1sC-31" edge="1">
          <mxGeometry width="160" relative="1" as="geometry">
            <mxPoint x="-60" y="530" as="sourcePoint" />
            <mxPoint x="100" y="530" as="targetPoint" />
          </mxGeometry>
        </mxCell>
        <mxCell id="oSvIhVIX3z2i7XlrZZki-6" style="edgeStyle=orthogonalEdgeStyle;rounded=0;orthogonalLoop=1;jettySize=auto;html=1;entryX=0.5;entryY=0;entryDx=0;entryDy=0;" parent="1" source="oSvIhVIX3z2i7XlrZZki-4" target="_2XkQiwsp4mKMtn9n1sC-13" edge="1">
          <mxGeometry relative="1" as="geometry" />
        </mxCell>
        <mxCell id="oSvIhVIX3z2i7XlrZZki-4" value="MouseListener" style="html=1;" parent="1" vertex="1">
          <mxGeometry x="-345" y="413" width="110" height="50" as="geometry" />
        </mxCell>
        <mxCell id="oSvIhVIX3z2i7XlrZZki-7" style="edgeStyle=orthogonalEdgeStyle;rounded=0;orthogonalLoop=1;jettySize=auto;html=1;" parent="1" source="oSvIhVIX3z2i7XlrZZki-5" target="_2XkQiwsp4mKMtn9n1sC-13" edge="1">
          <mxGeometry relative="1" as="geometry" />
        </mxCell>
        <mxCell id="oSvIhVIX3z2i7XlrZZki-5" value="MouseMotionListener" style="html=1;" parent="1" vertex="1">
          <mxGeometry x="-170" y="425" width="110" height="50" as="geometry" />
        </mxCell>
      </root>
    </mxGraphModel>
  </diagram>
</mxfile>
